<?xml version="1.0" standalone="no"?>
<!DOCTYPE svg PUBLIC "-//W3C//DTD SVG 20010904//EN"
 "http://www.w3.org/TR/2001/REC-SVG-20010904/DTD/svg10.dtd">
<svg version="1.0" xmlns="http://www.w3.org/2000/svg"
 width="256.000000pt" height="256.000000pt" viewBox="0 0 256.000000 256.000000"
 preserveAspectRatio="xMidYMid meet">

<g transform="translate(0.000000,256.000000) scale(0.100000,-0.100000)"
fill="#000000" stroke="none">
<path d="M960 2530 c-152 -38 -260 -84 -378 -163 -180 -121 -268 -208 -389
-389 -80 -120 -126 -227 -164 -383 -27 -112 -29 -133 -29 -317 0 -175 3 -210
24 -301 42 -177 89 -284 189 -430 109 -160 241 -284 414 -389 95 -58 191 -96
322 -129 108 -28 124 -29 333 -29 203 0 229 2 325 26 288 71 535 235 713 475
111 150 171 276 214 452 24 96 26 122 26 325 0 209 -1 225 -29 333 -33 131
-71 227 -129 322 -105 173 -229 305 -389 414 -146 100 -253 147 -430 189 -92
21 -125 24 -305 23 -189 0 -211 -2 -318 -29z m32 -557 l3 -138 143 -3 142 -3
0 -129 0 -130 -280 0 -280 0 0 135 0 135 -140 0 -140 0 0 67 0 67 67 68 67 68
208 0 207 0 3 -137z m1060 80 l58 -57 0 -213 0 -213 -135 0 -135 0 0 270 0
270 77 0 77 0 58 -57z m-1332 -1053 l0 -280 -140 0 -140 0 0 280 0 280 140 0
140 0 0 -280z m1400 0 l0 -280 -140 0 -140 0 0 280 0 280 140 0 140 0 0 -280z
m-570 -534 l0 -253 -77 -14 c-96 -17 -325 -15 -408 3 l-60 14 -3 252 -2 252
275 0 275 0 0 -254z"/>
</g>
</svg>
